<svg width="94" height="28" fill="none" xmlns="http://www.w3.org/2000/svg"><rect y="11.5" width="16" height="16" rx="2" fill="#1E1E1E"/><path fill="#fff" d="M5 15.5h6v9H5z"/><path d="M4.569 4.933c1.663-2.39 5.2-2.39 6.862 0C13.36 7.704 11.377 11.5 8 11.5S2.64 7.704 4.569 4.933zm80.486 5.479c1.776 0 3.328.36 4.656 1.08 1.344.704 2.376 1.696 3.096 2.976.72 1.28 1.08 2.744 1.08 4.392 0 1.632-.368 3.088-1.104 4.368-.72 1.28-1.752 2.288-3.096 3.024-1.328.72-2.872 1.08-4.632 1.08H78.36v-16.92h6.696zm-.36 12.768c1.376 0 2.456-.376 3.24-1.128.784-.752 1.176-1.816 1.176-3.192 0-1.392-.392-2.464-1.176-3.216-.784-.768-1.864-1.152-3.24-1.152h-1.632v8.688h1.632zm-13.421.552h5.256v3.6h-9.96v-16.92h4.704v13.32zm-7.382-13.32v16.92h-4.705v-16.92h4.705zm-17.182 0v9.816c0 .912.207 1.616.623 2.112.433.496 1.08.744 1.945.744.864 0 1.511-.248 1.944-.744.447-.512.672-1.216.672-2.112v-9.816h4.703v9.816c0 1.552-.328 2.88-.983 3.984a6.364 6.364 0 01-2.688 2.472c-1.12.544-2.369.816-3.745.816-1.375 0-2.607-.272-3.695-.816-1.072-.56-1.92-1.384-2.544-2.472-.608-1.088-.913-2.416-.913-3.984v-9.816h4.68zm-9.91 8.232c.992.224 1.776.72 2.352 1.488.592.752.888 1.616.888 2.592 0 1.44-.496 2.568-1.488 3.384-.992.816-2.384 1.224-4.176 1.224H26v-16.92h8.112c1.728 0 3.08.384 4.056 1.152.992.768 1.488 1.848 1.488 3.24 0 .992-.264 1.824-.792 2.496-.512.656-1.2 1.104-2.064 1.344zm-6.096-1.512h2.376c1.184 0 1.776-.488 1.776-1.464 0-1.008-.592-1.512-1.776-1.512h-2.376v2.976zm2.736 6.408c1.184 0 1.776-.496 1.776-1.488 0-.512-.16-.904-.48-1.176-.304-.272-.744-.408-1.32-.408h-2.712v3.072h2.736z" fill="#1E1E1E"/></svg>