<svg xmlns="http://www.w3.org/2000/svg" xmlns:xlink="http://www.w3.org/1999/xlink" width="1000" zoomAndPan="magnify" viewBox="0 0 750 749.999995" height="1000" preserveAspectRatio="xMidYMid meet" version="1.0"><defs><clipPath id="933fcce782"><path d="M 12.042969 98 L 738 98 L 738 652 L 12.042969 652 Z M 12.042969 98 " clip-rule="nonzero"/></clipPath></defs><path fill="#ffffff" d="M 537.34375 523.636719 L 634.023438 257.039062 L 730.710938 523.636719 Z M 212.652344 523.636719 L 19.285156 523.636719 L 115.972656 257.039062 Z M 734.648438 525.210938 L 734.648438 525.109375 L 734.636719 524.980469 L 734.535156 524.597656 L 636.359375 253.875 L 676.875 253.875 C 677.765625 253.875 678.515625 253.128906 678.515625 252.242188 L 678.515625 224.976562 C 678.515625 224.074219 677.777344 223.34375 676.875 223.34375 L 520.171875 223.34375 L 520.171875 180.03125 C 520.171875 161.65625 505.589844 146.191406 487.664062 145.550781 C 487.285156 145.535156 486.921875 145.535156 486.546875 145.535156 C 486.507812 145.535156 486.464844 145.535156 486.425781 145.535156 C 477.648438 145.535156 469.339844 148.890625 463.027344 155 C 462.339844 155.65625 461.710938 156.316406 461.105469 157.007812 L 456.664062 162.105469 L 455.421875 155.457031 C 452.445312 139.511719 438.5 127.9375 422.261719 127.9375 C 412.894531 127.9375 403.867188 131.90625 397.488281 138.824219 L 391.808594 144.976562 L 391.808594 136.050781 C 391.808594 117.671875 377.230469 102.210938 359.300781 101.589844 C 358.871094 101.570312 358.441406 101.558594 358.015625 101.558594 C 349.269531 101.558594 340.980469 104.917969 334.679688 111.003906 C 332.359375 113.25 330.386719 115.773438 328.808594 118.5 L 325.972656 123.410156 L 323.144531 118.5 C 317.113281 108.046875 305.914062 101.554688 293.902344 101.554688 C 275.308594 101.554688 260.175781 116.683594 260.175781 135.28125 L 260.175781 185.429688 L 257.339844 185.8125 C 240.664062 188.023438 228.089844 202.394531 228.089844 219.238281 L 228.089844 223.34375 L 73.113281 223.34375 C 72.210938 223.34375 71.480469 224.074219 71.480469 224.976562 L 71.480469 252.242188 C 71.480469 253.144531 72.210938 253.875 73.113281 253.875 L 113.632812 253.875 L 15.460938 524.59375 C 15.460938 524.59375 15.351562 524.980469 15.351562 524.980469 L 15.332031 525.269531 L 15.332031 525.546875 C 15.5625 560.207031 60.710938 588.40625 115.972656 588.40625 C 171.226562 588.40625 216.371094 560.207031 216.605469 525.570312 L 216.609375 525.335938 L 216.582031 524.972656 C 216.570312 524.929688 216.480469 524.597656 216.480469 524.597656 L 118.300781 253.875 L 228.089844 253.875 L 228.089844 281.472656 C 228.089844 302.363281 231.441406 323.011719 238.058594 342.84375 L 265.160156 424.015625 L 240.355469 424.015625 C 239.453125 424.015625 238.71875 424.746094 238.71875 425.648438 L 238.71875 517.390625 C 238.71875 518.292969 239.453125 519.023438 240.355469 519.023438 L 263.214844 519.023438 L 260.175781 647.027344 C 260.164062 647.449219 260.335938 647.871094 260.664062 648.203125 C 260.96875 648.519531 261.378906 648.6875 261.816406 648.6875 L 486.445312 648.6875 C 486.878906 648.6875 487.304688 648.511719 487.613281 648.195312 C 487.917969 647.890625 488.089844 647.457031 488.082031 647.027344 L 486 519.023438 L 507.902344 519.023438 C 508.804688 519.023438 509.542969 518.292969 509.542969 517.390625 L 509.542969 425.648438 C 509.542969 424.746094 508.804688 424.015625 507.902344 424.015625 L 484.730469 424.015625 L 511.003906 341.710938 C 517.085938 322.628906 520.171875 302.796875 520.171875 282.777344 L 520.171875 253.875 L 631.691406 253.875 L 533.515625 524.597656 L 533.445312 524.84375 C 533.429688 524.90625 533.414062 524.96875 533.40625 524.96875 C 533.40625 524.96875 533.402344 524.960938 533.402344 524.960938 L 533.394531 525.285156 L 533.371094 525.421875 L 533.371094 525.539062 C 533.617188 560.207031 578.769531 588.40625 634.023438 588.40625 C 689.285156 588.40625 734.433594 560.207031 734.664062 525.464844 L 734.664062 525.351562 L 734.648438 525.210938 " fill-opacity="1" fill-rule="nonzero"/><path fill="#35a9e1" d="M 470.832031 176.574219 C 470.792969 176.5625 470.75 176.554688 470.71875 176.542969 L 470.71875 179.261719 C 470.71875 178.351562 470.757812 177.457031 470.832031 176.574219 Z M 406.734375 158.230469 C 406.667969 158.21875 406.601562 158.203125 406.539062 158.191406 L 406.539062 161.667969 C 406.539062 160.507812 406.617188 159.367188 406.734375 158.230469 Z M 518.535156 180.027344 L 518.535156 282.777344 C 518.535156 302.613281 515.46875 322.328125 509.441406 341.222656 L 482.820312 424.601562 L 482.835938 425.644531 L 507.910156 425.644531 L 507.910156 456.226562 L 256.71875 456.226562 L 256.71875 425.644531 L 283.417969 425.644531 L 283.441406 424.601562 L 255.972656 342.335938 C 249.425781 322.710938 246.082031 302.160156 246.082031 281.476562 L 246.082031 219.238281 C 246.082031 201.507812 260.449219 187.144531 278.171875 187.144531 L 278.171875 135.285156 C 278.171875 120.394531 288.332031 107.90625 302.085938 104.289062 C 315.839844 107.90625 325.996094 120.394531 325.996094 135.285156 C 325.996094 127.074219 329.105469 119.605469 334.171875 113.933594 C 334.21875 113.984375 334.265625 114.046875 334.308594 114.105469 C 337.957031 106.773438 346.554688 103.0625 354.929688 104.566406 C 355.332031 104.640625 355.671875 104.765625 355.984375 104.917969 C 357.839844 104.90625 359.621094 105.269531 361.027344 106.160156 C 362.683594 105.394531 364.417969 104.757812 366.214844 104.28125 C 380.121094 108.007812 390.175781 121.058594 390.175781 136.050781 L 390.175781 161.667969 C 390.175781 150.945312 395.460938 141.472656 403.550781 135.648438 C 405.902344 133.25 408.601562 130.863281 411.386719 129.699219 C 414.136719 128.554688 416.058594 128.929688 417.328125 130.152344 C 420.863281 129.304688 424.46875 129.191406 426.777344 130.628906 C 427.179688 130.886719 427.515625 131.179688 427.816406 131.492188 C 428.675781 131.179688 429.550781 130.910156 430.445312 130.671875 C 444.199219 134.292969 454.355469 146.777344 454.355469 161.667969 L 454.355469 179.261719 C 454.355469 167.855469 460.316406 157.847656 469.277344 152.152344 C 469.378906 152.476562 469.453125 152.800781 469.539062 153.121094 C 470.117188 152.203125 470.792969 151.363281 471.621094 150.644531 C 476.769531 146.164062 485.195312 147.15625 491.453125 147.699219 C 492.234375 147.773438 493.003906 148.082031 493.667969 148.535156 C 493.976562 148.445312 494.269531 148.335938 494.578125 148.257812 C 508.480469 151.976562 518.535156 165.03125 518.535156 180.027344 Z M 484.335938 517.390625 L 486.449219 647.054688 L 278.171875 647.054688 L 281.246094 517.390625 L 484.335938 517.390625 " fill-opacity="1" fill-rule="nonzero"/><path fill="#35a9e1" d="M 281.972656 486.804688 L 256.71875 486.804688 L 256.71875 517.390625 L 507.910156 517.390625 L 507.910156 486.804688 Z M 551.355469 525.273438 C 551.355469 557.527344 591.34375 583.957031 642.203125 586.546875 C 693.054688 583.957031 733.042969 557.527344 733.042969 525.273438 Z M 124.148438 586.546875 C 175 583.957031 214.988281 557.527344 214.988281 525.273438 L 33.300781 525.273438 C 33.300781 557.527344 73.289062 583.957031 124.148438 586.546875 Z M 676.875 224.976562 L 534.898438 224.976562 L 534.898438 252.238281 L 676.875 252.238281 Z M 229.644531 224.976562 L 229.972656 252.238281 L 89.46875 252.238281 L 89.46875 224.976562 L 229.644531 224.976562 " fill-opacity="1" fill-rule="nonzero"/><g clip-path="url(#933fcce782)"><path fill="#100f0d" d="M 634.019531 266.625 L 726.042969 520.363281 L 542 520.363281 Z M 523.449219 245.929688 L 523.449219 229.886719 L 629.113281 229.886719 L 629.113281 247.324219 L 523.449219 247.324219 Z M 481.464844 642.144531 L 266.839844 642.144531 L 269.679688 522.296875 L 479.507812 522.296875 Z M 245.265625 430.550781 L 503.003906 430.550781 L 503.003906 512.484375 L 245.265625 512.484375 Z M 207.992188 520.363281 L 23.945312 520.363281 L 115.972656 266.628906 Z M 80.550781 577.699219 C 48.5625 569.855469 25.300781 551.722656 22.203125 530.179688 L 209.730469 530.179688 C 205.582031 559.097656 165.113281 581.867188 115.972656 581.867188 C 103.441406 581.867188 91.488281 580.378906 80.550781 577.699219 Z M 78.023438 229.886719 L 111.058594 229.886719 L 111.058594 247.324219 L 78.023438 247.324219 Z M 485.695312 152.117188 C 486.28125 152.101562 486.859375 152.074219 487.441406 152.097656 L 487.449219 152.097656 C 501.886719 152.605469 513.632812 165.140625 513.632812 180.027344 L 513.632812 245.929688 C 513.632812 260.917969 501.4375 273.113281 486.449219 273.113281 C 471.460938 273.113281 459.269531 260.917969 459.269531 245.929688 L 459.269531 179.265625 C 459.269531 179.261719 459.269531 179.261719 459.269531 179.253906 C 459.269531 171.8125 462.21875 164.867188 467.574219 159.695312 C 468.464844 158.839844 469.414062 158.074219 470.394531 157.359375 C 474.839844 154.085938 480.125 152.28125 485.695312 152.117188 Z M 421.566406 134.519531 C 421.804688 134.515625 422.03125 134.488281 422.269531 134.488281 C 437.257812 134.488281 449.449219 146.679688 449.449219 161.667969 L 449.449219 179.25 C 449.449219 179.253906 449.449219 179.253906 449.449219 179.253906 L 449.449219 245.929688 C 449.449219 260.917969 437.257812 273.113281 422.269531 273.113281 C 407.28125 273.113281 395.085938 260.917969 395.085938 245.929688 L 395.085938 161.667969 C 395.085938 152.542969 399.617188 144.480469 406.539062 139.546875 C 410.800781 136.5 415.972656 134.667969 421.566406 134.519531 Z M 339.214844 115.722656 C 344.148438 110.957031 350.523438 108.332031 357.339844 108.144531 C 357.917969 108.128906 358.496094 108.097656 359.085938 108.121094 C 373.527344 108.632812 385.269531 121.164062 385.269531 136.058594 L 385.269531 198.796875 C 377.949219 188.769531 366.113281 182.238281 352.773438 182.238281 L 330.90625 182.238281 L 330.90625 135.285156 C 330.90625 128.832031 333.128906 122.757812 337.207031 117.894531 C 337.832031 117.140625 338.5 116.414062 339.214844 115.722656 Z M 266.726562 135.285156 C 266.726562 120.53125 278.546875 108.511719 293.207031 108.140625 C 293.445312 108.132812 293.671875 108.097656 293.910156 108.097656 C 308.898438 108.097656 321.089844 120.296875 321.089844 135.285156 L 321.089844 182.238281 L 266.726562 182.238281 Z M 120.875 229.886719 L 224.824219 229.886719 L 224.824219 247.324219 L 120.875 247.324219 Z M 513.632812 282.777344 C 513.632812 302.132812 510.648438 321.292969 504.761719 339.730469 L 478.902344 420.738281 L 270.96875 420.738281 L 244.273438 340.785156 C 237.878906 321.625 234.632812 301.671875 234.632812 281.472656 L 234.632812 253.058594 C 234.679688 252.792969 234.71875 252.519531 234.71875 252.238281 C 234.71875 251.953125 234.679688 251.679688 234.632812 251.414062 L 234.632812 219.238281 C 234.632812 204.480469 246.453125 192.464844 261.117188 192.082031 C 261.351562 192.078125 261.582031 192.050781 261.816406 192.050781 L 352.773438 192.050781 C 369.539062 192.050781 383.179688 205.6875 383.179688 222.457031 C 383.179688 239.222656 369.539062 252.859375 352.773438 252.859375 L 301.742188 252.859375 C 299.03125 252.859375 296.835938 255.054688 296.835938 257.765625 C 296.835938 260.476562 299.03125 262.671875 301.742188 262.671875 L 321.992188 262.671875 C 363.375 262.671875 397.039062 296.335938 397.039062 337.71875 L 397.039062 352.105469 C 397.039062 354.816406 399.234375 357.015625 401.945312 357.015625 C 404.65625 357.015625 406.847656 354.816406 406.847656 352.105469 L 406.847656 337.71875 C 406.847656 304.660156 387.839844 275.976562 360.1875 261.972656 C 370.445312 260.058594 379.34375 254.234375 385.277344 246.105469 C 385.371094 266.425781 401.925781 282.929688 422.269531 282.929688 C 435.980469 282.929688 447.972656 275.421875 454.355469 264.304688 C 460.746094 275.421875 472.738281 282.929688 486.449219 282.929688 C 497.183594 282.929688 506.867188 278.324219 513.632812 270.992188 Z M 671.96875 229.886719 L 671.96875 247.324219 L 638.929688 247.324219 L 638.929688 229.886719 Z M 598.589844 577.691406 C 566.609375 569.84375 543.355469 551.71875 540.257812 530.179688 L 727.785156 530.179688 C 723.632812 559.089844 683.164062 581.859375 634.019531 581.859375 C 621.492188 581.859375 609.535156 580.375 598.589844 577.691406 Z M 737.914062 524.957031 C 737.902344 524.773438 737.890625 524.597656 737.863281 524.421875 C 737.835938 524.253906 737.785156 524.078125 737.730469 523.90625 C 737.703125 523.804688 737.691406 523.703125 737.652344 523.601562 L 641.023438 257.140625 L 676.875 257.140625 C 679.585938 257.140625 681.78125 254.949219 681.78125 252.238281 L 681.78125 224.976562 C 681.78125 222.265625 679.585938 220.070312 676.875 220.070312 L 523.449219 220.070312 L 523.449219 180.027344 C 523.449219 159.917969 507.457031 142.980469 487.792969 142.285156 C 477.652344 141.925781 468.050781 145.597656 460.757812 152.632812 C 460.015625 153.347656 459.3125 154.09375 458.636719 154.859375 C 455.429688 137.695312 440.34375 124.675781 422.269531 124.675781 C 411.535156 124.675781 401.847656 129.269531 395.085938 136.597656 L 395.085938 136.058594 C 395.085938 115.941406 379.089844 99.007812 359.433594 98.3125 C 349.269531 97.949219 339.6875 101.628906 332.398438 108.660156 C 329.847656 111.121094 327.699219 113.878906 325.980469 116.859375 C 319.585938 105.769531 307.605469 98.289062 293.910156 98.289062 C 273.507812 98.289062 256.910156 114.886719 256.910156 135.285156 L 256.910156 182.5625 C 238.820312 184.964844 224.824219 200.5 224.824219 219.238281 L 224.824219 220.070312 L 73.113281 220.070312 C 70.410156 220.070312 68.207031 222.265625 68.207031 224.976562 L 68.207031 252.238281 C 68.207031 254.949219 70.410156 257.140625 73.113281 257.140625 L 108.96875 257.140625 L 12.335938 523.601562 C 12.296875 523.703125 12.285156 523.804688 12.257812 523.90625 C 12.207031 524.078125 12.15625 524.253906 12.125 524.421875 C 12.097656 524.597656 12.085938 524.773438 12.074219 524.957031 C 12.0625 525.058594 12.042969 525.160156 12.042969 525.273438 C 12.042969 525.335938 12.046875 525.40625 12.046875 525.464844 C 12.046875 525.5 12.054688 525.535156 12.054688 525.570312 C 12.308594 562.050781 58.816406 591.675781 115.972656 591.675781 C 173.117188 591.675781 219.628906 562.050781 219.882812 525.570312 C 219.882812 525.535156 219.890625 525.5 219.890625 525.464844 C 219.890625 525.40625 219.894531 525.335938 219.894531 525.273438 C 219.894531 525.160156 219.871094 525.058594 219.859375 524.957031 C 219.847656 524.773438 219.835938 524.597656 219.808594 524.421875 C 219.78125 524.253906 219.730469 524.078125 219.679688 523.90625 C 219.652344 523.804688 219.640625 523.703125 219.601562 523.601562 L 122.96875 257.140625 L 224.824219 257.140625 L 224.824219 281.472656 C 224.824219 302.726562 228.230469 323.726562 234.960938 343.894531 L 260.625 420.738281 L 240.363281 420.738281 C 237.652344 420.738281 235.449219 422.933594 235.449219 425.644531 L 235.449219 517.390625 C 235.449219 520.101562 237.652344 522.296875 240.363281 522.296875 L 259.863281 522.296875 L 256.910156 646.9375 C 256.882812 648.257812 257.378906 649.535156 258.304688 650.480469 C 259.230469 651.429688 260.496094 651.960938 261.816406 651.960938 L 486.449219 651.960938 C 487.765625 651.960938 489.023438 651.433594 489.949219 650.492188 C 490.867188 649.558594 491.378906 648.285156 491.355469 646.976562 L 489.320312 522.296875 L 507.910156 522.296875 C 510.613281 522.296875 512.816406 520.101562 512.816406 517.390625 L 512.816406 425.644531 C 512.816406 422.933594 510.613281 420.738281 507.910156 420.738281 L 489.207031 420.738281 L 514.113281 342.714844 C 520.304688 323.308594 523.449219 303.148438 523.449219 282.777344 L 523.449219 257.140625 L 627.019531 257.140625 L 530.390625 523.601562 C 530.351562 523.703125 530.339844 523.804688 530.308594 523.90625 C 530.257812 524.078125 530.207031 524.253906 530.179688 524.421875 C 530.152344 524.597656 530.140625 524.773438 530.128906 524.957031 C 530.125 525.058594 530.09375 525.160156 530.09375 525.273438 C 530.09375 525.335938 530.101562 525.40625 530.105469 525.464844 C 530.105469 525.5 530.105469 525.535156 530.105469 525.570312 C 530.359375 562.046875 576.875 591.675781 634.019531 591.675781 C 691.167969 591.675781 737.679688 562.046875 737.9375 525.570312 C 737.9375 525.535156 737.941406 525.5 737.941406 525.464844 C 737.941406 525.40625 737.949219 525.335938 737.949219 525.273438 C 737.949219 525.160156 737.925781 525.058594 737.914062 524.957031 " fill-opacity="1" fill-rule="nonzero"/></g></svg>